<svg xmlns="http://www.w3.org/2000/svg" enable-background="new 0 0 2423.502 2100" viewBox="0 0 2423.502 2100"><ellipse cx="1332.099" cy="1926.494" fill="#5cbec6" rx="605.458" ry="34.136"/><path fill="#f2c3a7" d="M2064.699,792.793h-452.978c-27.076,0-49.915-21.603-50.989-48.084l-2.132-52.58     c-1.084-26.74,20.169-49.265,47.468-49.98l458.02-14.509c33.141-0.869,60.517,22.935,60.517,52.806v58.703     C2124.605,768.696,2097.507,792.793,2064.699,792.793z"/><path fill="#ffe9d4" d="M2038.09,792.793h-448.556c-26.867,0-49.565-21.52-50.67-47.9l-2.194-52.377     c-1.116-26.637,19.941-49.071,47.028-49.781l453.514-14.391c32.858-0.861,60.04,22.842,60.089,52.584l0.098,58.45     C2097.449,768.799,2070.621,792.793,2038.09,792.793z"/><path fill="#50456d" d="M1671.219,690.009l-17.814,24.18l0.013,0.381l29.522-4.231l0.429,13.018l-29.752-3.073      l0.013,0.38l19.578,22.653l-12.105,6.944l-12.633-26.489l-0.39,0.005l-11.68,26.854l-11.271-6.716l17.58-23.305l-0.014-0.38      l-28.518,3.951l-0.479-12.862l28.6,3.211l-0.013-0.38l-19.083-22.911l11.597-6.879l13.015,26.286l0.39-0.005l11.003-26.93      L1671.219,690.009z"/><path fill="#50456d" d="M1780.891,688.069l-18.67,24.644l0.011,0.388l30.673-4.319l0.348,13.264l-30.857-3.124      l0.011,0.388l20.15,23.077l-12.616,7.077l-12.913-26.985l-0.404,0.005l-12.32,27.361l-11.645-6.84l18.415-23.746l-0.011-0.387      l-29.62,4.032l-0.401-13.103l29.652,3.263l-0.011-0.387l-19.632-23.337l12.085-7.013l13.31,26.778l0.405-0.006l11.621-27.443      L1780.891,688.069z"/><path fill="#50456d" d="M1888.884,686.159l-19.531,25.1l0.009,0.395l31.828-4.406l0.264,13.508l-31.964-3.174      l0.009,0.395l20.72,23.493l-13.128,7.208l-13.19-27.474l-0.419,0.005l-12.966,27.86l-12.019-6.963l19.256-24.18l-0.009-0.394      l-30.726,4.112l-0.322-13.34l30.708,3.315l-0.009-0.394l-20.179-23.756l12.575-7.145l13.603,27.263l0.419-0.006l12.243-27.949      L1888.884,686.159z"/><path fill="#50456d" d="M1994.148,684.297l-20.388,25.546l0.006,0.402l32.974-4.491l0.18,13.745l-33.063-3.223      l0.006,0.402l21.283,23.9l-13.638,7.335l-13.461-27.95l-0.434,0.005l-13.609,28.346l-12.389-7.082l20.092-24.604l-0.006-0.401      l-31.823,4.19l-0.242-13.571l31.753,3.365l-0.006-0.401l-20.719-24.165l13.062-7.273l13.89,27.735l0.434-0.006l12.864-28.442      L1994.148,684.297z"/><rect width="641.892" height="32.571" x="901.201" y="1398.885" fill="#5cbec6"/><path fill="#53619b" d="M1551.614,1164.849H892.68c-31.867,0-57.941,26.073-57.941,57.941v118.154       c0,31.867,26.073,57.941,57.941,57.941h658.934c31.867,0,57.941-26.073,57.941-57.941V1222.79       C1609.554,1190.923,1583.481,1164.849,1551.614,1164.849z"/><path fill="#404f7f" d="M1551.614,1164.849h-18.177v158.415c0,13.473-11.023,24.496-24.496,24.496H835.157       c3.403,28.684,27.962,51.124,57.523,51.124h658.934c31.867,0,57.941-26.073,57.941-57.941V1222.79       C1609.554,1190.923,1583.481,1164.849,1551.614,1164.849z"/><circle cx="1006.824" cy="1275.811" r="19.861" fill="#404f7f" transform="rotate(-26.603 1006.788 1275.798)"/><circle cx="1094.56" cy="1275.811" r="19.861" fill="#ffe164" transform="rotate(-76.714 1094.677 1275.873)"/><circle cx="1182.297" cy="1275.811" r="19.861" fill="#404f7f" transform="rotate(-22.5 1182.239 1275.759)"/><path fill="#fff" d="M1080.371,1204.711H894.052c-3.399,0-6.154-2.755-6.154-6.154c0-3.399,2.755-6.154,6.154-6.154       h186.319c3.399,0,6.154,2.755,6.154,6.154C1086.525,1201.956,1083.77,1204.711,1080.371,1204.711z"/><path fill="#fff" d="M1238.167,1204.711h-117.911c-3.399,0-6.154-2.755-6.154-6.154c0-3.399,2.755-6.154,6.154-6.154       h117.911c3.399,0,6.154,2.755,6.154,6.154C1244.321,1201.956,1241.565,1204.711,1238.167,1204.711z"/><path fill="#53619b" d="M1551.614,1431.456H892.68c-31.867,0-57.941,26.073-57.941,57.941v118.154       c0,31.867,26.073,57.941,57.941,57.941h658.934c31.867,0,57.941-26.073,57.941-57.941v-118.154       C1609.554,1457.529,1583.481,1431.456,1551.614,1431.456z"/><path fill="#404f7f" d="M1551.614,1431.456h-18.177v158.415c0,13.473-11.023,24.495-24.496,24.495H835.157       c3.403,28.684,27.962,51.124,57.523,51.124h658.934c31.867,0,57.941-26.073,57.941-57.941v-118.154       C1609.554,1457.529,1583.481,1431.456,1551.614,1431.456z"/><circle cx="1006.824" cy="1542.418" r="19.861" fill="#404f7f" transform="rotate(-80.003 1006.793 1542.433)"/><circle cx="1094.56" cy="1542.418" r="19.861" fill="#404f7f" transform="rotate(-45.001 1094.548 1542.438)"/><circle cx="1182.297" cy="1542.418" r="19.861" fill="#ffe164" transform="rotate(-80.781 1182.324 1542.4)"/><path fill="#fff" d="M1080.371,1471.318H894.052c-3.399,0-6.154-2.755-6.154-6.154c0-3.399,2.755-6.154,6.154-6.154       h186.319c3.399,0,6.154,2.755,6.154,6.154C1086.525,1468.562,1083.77,1471.318,1080.371,1471.318z"/><path fill="#fff" d="M1238.167,1471.318h-117.911c-3.399,0-6.154-2.755-6.154-6.154c0-3.399,2.755-6.154,6.154-6.154       h117.911c3.399,0,6.154,2.755,6.154,6.154C1244.321,1468.562,1241.565,1471.318,1238.167,1471.318z"/><g><rect width="641.892" height="32.571" x="901.201" y="1665.491" fill="#5cbec6"/></g><g><path fill="#53619b" d="M1551.614,1698.063H892.68c-31.867,0-57.941,26.073-57.941,57.941v118.154       c0,31.867,26.073,57.941,57.941,57.941h658.934c31.867,0,57.941-26.073,57.941-57.941v-118.154       C1609.554,1724.136,1583.481,1698.063,1551.614,1698.063z"/><path fill="#404f7f" d="M1551.614,1698.063h-18.177v158.415c0,13.473-11.023,24.496-24.496,24.496H835.157       c3.403,28.684,27.962,51.124,57.523,51.124h658.934c31.867,0,57.941-26.073,57.941-57.941v-118.154       C1609.554,1724.136,1583.481,1698.063,1551.614,1698.063z"/><circle cx="1006.824" cy="1809.024" r="19.861" fill="#ffe164"/><circle cx="1094.56" cy="1809.024" r="19.861" fill="#404f7f"/><circle cx="1182.297" cy="1809.024" r="19.861" fill="#404f7f"/><path fill="#fff" d="M1080.371,1737.924H894.052c-3.399,0-6.154-2.755-6.154-6.154c0-3.399,2.755-6.154,6.154-6.154       h186.319c3.399,0,6.154,2.755,6.154,6.154C1086.525,1735.169,1083.77,1737.924,1080.371,1737.924z"/><path fill="#fff" d="M1238.167,1737.924h-117.911c-3.399,0-6.154-2.755-6.154-6.154c0-3.399,2.755-6.154,6.154-6.154       h117.911c3.399,0,6.154,2.755,6.154,6.154C1244.321,1735.169,1241.565,1737.924,1238.167,1737.924z"/></g><g><path fill="#404859" d="M1632.169,1507.934c-1.116-1.598-3.279-17.593-3.641-18.303            c-1.567-3.067-18.214,5.612-18.37,13.448c-0.292,14.685-11.201,9.578-12.339,4.936            c-4.113,9.054,6.873,35.227,13.392,37.562c12.465,4.465,30.049,24.873,60.524,16.644            C1683.398,1559.07,1642.1,1522.152,1632.169,1507.934z"/><path fill="#404859" d="M1833.426,1358.511c-11.212,1.241-15.036,0.97-22.477-2.063            c-0.502-0.204-6.562-14.85-7.125-15.414c-2.434-2.436-21.472,26.918-27.052,23.009            c-1.13,9.88,17.294,36.629,24.216,36.846c13.234,0.416,74.048-40.824,70.195-46.383            C1868.87,1351.17,1848.598,1356.831,1833.426,1358.511z"/><path fill="#d47328" d="M1446.265,796.042c0,0,45.962,90.339,79.977,147.953             c-10.399,17.455-35.476,50.672-78.063,51.732c-23.254-37.64-44.379-115.215-44.379-115.215L1446.265,796.042z"/><path fill="#ffae43" d="M1186.176,1021.834c0,0-6.2-129.273,54.133-229.422            c58.887-97.748,192.48-40.238,205.955,3.629s-48.516,127.324-50.819,174.259c-2.492,50.797,42.371,71.354,41.353,91.74            c-1.019,20.386-127.132,9.576-164.61-13.573S1186.176,1021.834,1186.176,1021.834z"/><path fill="#bc5151" d="M1511.777,1186.929c0,0-173.773,11.634-168.181-27.469            c5.592-39.103,111.01-57.743,164.876-38.034C1562.338,1141.135,1552.88,1179.112,1511.777,1186.929z"/><path fill="#ed6966" d="M1195.31,1115.915c20.23,35.63,61.065,55.766,150.025,65.974            c88.961,10.208,200.011-44.983,200.011-44.983l210.461,248.698l53.787-38.86c0,0-42.743-80.196-93.604-158.018            c-50.86-77.822-98.266-155.277-124.138-166.474c-35.684-15.443-285.72,9.518-285.72,9.518l-119.956-9.936            C1186.176,1021.834,1180.63,1090.06,1195.31,1115.915z"/><path fill="#bc5151" d="M1485.941,1161.291c0,0,18.621,100.576,27.289,133.526            c29.207,111.024,77.979,221.36,77.979,221.36l47.878-8.992c0,0-39.402-320.409-47.07-347.184            C1584.348,1133.226,1510.318,1086.019,1485.941,1161.291z"/><path fill="#bc5151" d="M1544.339,1134.769c0.228-0.015,0.455-0.072,0.672-0.177             c17.695-8.435,28.909-22.124,29.378-22.702c0.641-0.791,0.518-1.95-0.273-2.592c-0.785-0.64-1.95-0.521-2.59,0.271             c-0.11,0.135-11.186,13.632-28.1,21.697c-0.92,0.438-1.31,1.538-0.871,2.456             C1542.889,1134.423,1543.61,1134.817,1544.339,1134.769z"/><polygon fill="#5d6575" points="1438.666 1038.48 1339.416 1009.242 1338.96 1002.188 1515.627 975.819 1637.197 1006.484"/><polygon fill="#3f434c" points="1637.197 1006.484 1438.666 1038.48 1455.747 885.503 1654.278 853.507"/><path fill="#ff867a" d="M1348.363,977.785c0,0,55.903-6.841,59.975-0.401c4.071,6.439,15.575,20.407,11.912,21.693           c-3.663,1.286-10.816-10.019-10.816-10.019s7.748,16.512,6.249,18.428c-1.499,1.916-4.021,0.153-4.021,0.153           s-0.973,2.914-3.166,3.966c-2.193,1.052-11.806-10.644-11.806-10.644s-41.613,16.888-46.623-2.062           C1345.055,979.948,1348.363,977.785,1348.363,977.785z"/><ellipse cx="1559.244" cy="947.327" fill="#fff" rx="12.959" ry="8.323" transform="rotate(-82.114 1559.353 947.36)"/><path fill="#ffae43" d="M1164.033,869.596c42.423-59.492,105.266-109.868,105.266-109.868       c25.653-13.26,45.959,23.743,27.659,60.077c-7.479,14.848-70.356,98.698-70.903,98.479       c-11.973,15.57-20.58,26.553-20.58,26.553s101.637,5.386,147.764,24.183c17.091,6.965,0.636,34.834-0.135,44.254       c-1.208,14.749-66.282,14.973-133.038,11.019c-46.747-2.769-87.156-12.085-93.114-50.787       C1121.961,941.088,1139.619,903.834,1164.033,869.596z"/><path fill="#7f635d" d="M1386.803,682.463l-2.731,4.795c0,0-5.054,10.592-6.114,17.566s2.252,10.879,7.978,11.142       c5.726,0.263,37.409-20.029,32.882-24.663C1414.289,686.668,1392,680.029,1386.803,682.463z"/><path fill="#ff867a" d="M1386.862,763.399c-13.556,1.552-29.172-18.684-27.198-24.023l25.05-40.09l0.879-1.319              l0.396,0.488l13.025,16.105l-7.997,30.945C1391.017,745.507,1390.208,763.016,1386.862,763.399z"/><path fill="#c66c67" d="M1384.356,714.951c0,0-3.49,7.832-1.208,16.594c1.198,4.6,5.534,6.928,9.383,8.104        l3.964-15.338L1384.356,714.951z"/><path fill="#ff867a" d="M1413.879,726.016c-1.513,2.139-3.171,3.576-5.011,4.296              c-0.013-0.001-0.028,0.007-0.045,0.017c-0.565,0.218-1.151,0.37-1.753,0.451c-0.344,0.047-0.689,0.076-1.036,0.09              c-3.275,0.106-6.743-1.44-11.414-5.438l-0.021-0.015c-0.195-0.162-0.394-0.331-0.59-0.511l-0.009-0.007              c-0.418-0.367-0.845-0.753-1.282-1.156c-0.509-0.479-1.031-0.976-1.557-1.5c-1.786-1.071-3.313-2.804-4.507-4.897              c-0.257-0.444-0.495-0.906-0.72-1.381c-2.715-5.748-3.181-13.473-0.301-18.178c0.399-0.654,0.862-1.247,1.394-1.772              l3.275-4.06l1.056-0.242c6.344-1.455,11.391-7.732,11.391-7.732c5.532-6.95,14.902-3.915,18.649-2.604              c12.769,4.468,7.628,8.41,6.121,15.838C1426.279,703.333,1420.831,716.193,1413.879,726.016z"/><path fill="#7f635d" d="M1405.774,693.393c3.164,0.018,5.81,0.173,8.002,2.776              c0.613,0.727-0.116,1.692-1.246,1.168c-3.114-1.444-4.058-1.965-7.193-2.407              C1403.939,694.734,1403.933,693.383,1405.774,693.393z"/><path fill="#7f635d" d="M1426.444,703.211c-0.447-1.549-1.77-2.521-2.956-3.31              c-0.792-0.527-1.829-0.115-1.118,0.908c1.958,2.818,2.181,2.481,2.933,3.987              C1425.836,705.862,1426.955,704.979,1426.444,703.211z"/><path fill="#7f635d" d="M1410.981,712.007c0,0-3.688-2.899-6.094-3.26c-2.406-0.361-5.111-0.537-6.784-0.975           c-1.673-0.438-3.229-4.514-3.932-6.919c-0.703-2.405,2.819-14.865-0.135-14.615c-1.324,0.112-1.849,6.461-3.851,11.128           c-2.463,5.744-4.674,11.74-5.671,13.452c-1.806,3.103-3.197,9.113,2.825,16.483c5.346,6.542,12.859,9.216,16.943,8.854           c11.421-1.012,8.666-7.478,10.193-9.247c1.527-1.768,5.573-9.156,5.977-10.086c0.403-0.93,1.082-1.722-0.717-2.707           C1417.935,713.131,1414.131,713.377,1410.981,712.007z"/><path fill="#434a59" d="M1410.162,703.053c-0.519,0.724-1.324,1.035-1.797,0.696               c-0.473-0.339-0.436-1.201,0.083-1.925c0.519-0.724,1.324-1.035,1.797-0.696               C1410.719,701.467,1410.681,702.329,1410.162,703.053z"/><path fill="#434a59" d="M1422.455,709.903c-0.519,0.724-1.324,1.035-1.797,0.696               c-0.473-0.339-0.436-1.201,0.083-1.925c0.519-0.724,1.324-1.035,1.797-0.696               C1423.012,708.317,1422.974,709.179,1422.455,709.903z"/><path fill="#fff" d="M1416.122,717.567c0,0-6.96-1.444-12.307-5.101c0,0-0.806,5.966,4.113,8.703            S1416.122,717.567,1416.122,717.567z"/><path fill="#c66c67" d="M1409.884,711.317c-0.16,0.094,0.057,0.562,0.611,0.968               c0.555,0.443,1.478,0.844,2.69,0.806c0.014-0.009,0.052-0.011,0.075-0.006c0.751-0.056,1.362-0.279,1.857-0.569               c0.721-0.403,1.162-0.95,1.291-1.295c0.078-0.199,0.071-0.311-0.023-0.371c-0.04-0.034-0.086-0.045-0.146-0.048               c-0.24,0.025-0.708,0.261-1.305,0.477c-0.458,0.153-0.976,0.303-1.554,0.353c-0.067,0.02-0.127,0.017-0.202,0.022               c-0.892,0.081-1.688-0.106-2.286-0.255C1410.363,711.267,1410.01,711.167,1409.884,711.317z"/><path fill="#434a59" d="M1406.207,706.067c-0.47-0.081-0.938-0.203-1.399-0.367c-1.901-0.673-3.456-1.967-4.379-3.642         c-0.932-1.691-1.11-3.567-0.502-5.283c0.608-1.716,1.927-3.061,3.715-3.789c1.772-0.72,3.794-0.746,5.696-0.073         c1.901,0.673,3.456,1.967,4.379,3.642c0.932,1.691,1.11,3.567,0.502,5.283c-0.608,1.716-1.927,3.061-3.715,3.788         C1409.162,706.174,1407.675,706.321,1406.207,706.067z M1407.807,693.319c-1.325-0.229-2.663-0.097-3.869,0.393         c-1.578,0.642-2.741,1.823-3.273,3.325c-0.532,1.503-0.372,3.152,0.45,4.644c0.831,1.507,2.235,2.673,3.956,3.282         c1.721,0.61,3.546,0.588,5.14-0.06c1.578-0.641,2.741-1.823,3.273-3.325v0c0.532-1.502,0.372-3.152-0.45-4.644         c-0.831-1.507-2.236-2.673-3.956-3.282C1408.658,693.503,1408.233,693.393,1407.807,693.319z"/><path fill="#434a59" d="M1421.483,714.989c-0.237-0.041-0.471-0.102-0.703-0.184         c-2.788-0.988-4.041-4.659-2.792-8.185c1.249-3.525,4.532-5.589,7.322-4.602c2.788,0.988,4.041,4.659,2.792,8.185v0         C1426.958,713.436,1424.1,715.441,1421.483,714.989z M1424.47,702.605c-2.246-0.388-4.727,1.408-5.744,4.277         c-1.105,3.119-0.066,6.342,2.316,7.186c2.377,0.844,5.218-1.007,6.324-4.125c1.105-3.119,0.066-6.342-2.316-7.186         C1424.859,702.689,1424.665,702.638,1424.47,702.605z"/><path fill="#434a59" d="M1419.064,704.979c-2.102-3.222-5.039-2.898-5.163-2.882l-0.1-0.776         c0.144-0.019,3.54-0.418,5.919,3.231L1419.064,704.979z"/><polygon fill="#434a59" points="1405.052 693.249 1392.425 685.742 1392.876 685.103 1405.502 692.61"/><path fill="#ff867a" d="M1392.313,691.255c0.64-2.677,0.97-6.804-3.469-5.8              c-6.457,1.461-9.655,14.452-3.298,17.12C1390.267,704.556,1391.977,692.664,1392.313,691.255z"/><path fill="#d47328" d="M1343.043,967.435c0.891,0,1.715-0.575,1.992-1.47c0.34-1.101-0.276-2.268-1.377-2.608       c-28.914-8.933-114.894-18.203-134.228-20.21c3.846-4.949,11.49-14.788,15.052-19.401       c4.867-6.302,72.625-101.48,75.507-105.529c0.668-0.938,0.449-2.24-0.49-2.908c-0.939-0.668-2.24-0.449-2.908,0.49       c-0.705,0.991-70.593,99.16-75.41,105.399c-4.839,6.267-17.228,22.201-17.353,22.361c-0.466,0.599-0.569,1.404-0.271,2.102       c0.299,0.698,0.953,1.178,1.709,1.254c1.052,0.106,105.597,10.677,137.161,20.429       C1342.632,967.405,1342.84,967.435,1343.043,967.435z"/><path fill="#d47328" d="M1153.83,973.715c0.785,0,1.536-0.445,1.891-1.203c0.041-0.085,2.805-5.809,10.26-11.778       c6.915-5.535,19.404-12.425,39.636-13.817c1.149-0.079,2.016-1.075,1.937-2.224c-0.079-1.149-1.075-2.019-2.224-1.937       c-21.464,1.476-34.784,8.917-42.178,14.899c-8.131,6.579-11.092,12.832-11.214,13.095c-0.485,1.045-0.031,2.285,1.014,2.77       C1153.237,973.652,1153.536,973.715,1153.83,973.715z"/><circle cx="1424.665" cy="821.404" r="6.38" fill="#fff1eb"/><circle cx="1338.462" cy="768.317" r="6.38" fill="#fff1eb"/><circle cx="1325.701" cy="871.962" r="6.38" fill="#fff1eb"/><circle cx="1321.151" cy="1005.29" r="6.38" fill="#fff1eb"/><circle cx="1230.777" cy="968.888" r="6.38" fill="#fff1eb"/><circle cx="1189.066" cy="883.889" r="6.38" fill="#fff1eb"/><circle cx="1205.474" cy="1003.259" r="6.38" fill="#fff1eb"/><circle cx="1237.158" cy="804.214" r="6.38" fill="#fff1eb"/><circle cx="1274.259" cy="797.833" r="6.38" fill="#fff1eb"/><circle cx="1263.641" cy="920.944" r="6.38" fill="#fff1eb"/><circle cx="1362.736" cy="931.055" r="6.38" fill="#fff1eb"/><circle cx="1395.815" cy="871.128" r="6.38" fill="#fff1eb"/><path fill="#7f635d" d="M1397.962,684.398c0,0,14.618,7.012,24.171,10.017c9.553,3.005,12.558,3.784,12.224,1.781      c-0.334-2.003-1.892-3.767-1.892-3.767s5.676,1.43,6.567-0.796c0.89-2.226-4.786-8.459-4.786-8.459s3.784,2.671,3.896-0.556      c0.111-3.228-5.938-9.683-15.094-12.465c-9.156-2.782-16.297-7.68-27.866-1.224c-6.532,3.645-8.376,13.536-8.376,13.536      L1397.962,684.398z"/></g><g><ellipse cx="504.426" cy="1829.442" fill="#a1d5e2" rx="205.529" ry="8.166"/><path fill="#333944" d="M518.922,1174.379c0,0,95.74-39.396,134.93-20.42c39.189,18.976,17.532,53.422-10.107,75.904       c-23.234,18.9-66.828,44.759-66.828,44.759l-45.876-45.685l80.419-37.233c0,0-11.236,2.896-37.431,3.544       c-12.558,0.311-50.215-1.774-50.215-1.774L518.922,1174.379z"/><path fill="#415168" d="M432.49,1811.507c3.194-6.106,3.324-15.947,3.454-16.415c0.562-2.021,5.306-2.724,6.592,2.059        c2.534,9.428,11.893-1.942,10.692,1.465c-3.575,10.142-4.512,27.372-8.214,27.708c-7.887,0.715-38.152,5.627-37.722,1.458        C407.55,1825.28,430.368,1815.565,432.49,1811.507z"/><path fill="#415168" d="M583.324,1820.492c-4.282-2.004-4.736-5.873-6.486-9.575c-0.118-0.25-0.698-5.519-0.693-5.938        c0.023-1.812-6.941-30.85-9.474-27.139c-4.994,7.316-8.888,19.85-8.686,22.961c0.599,9.26-3.253,23.859,0.163,24.956        c7.277,2.337,41.432,5.698,42.171,2.12C600.761,1825.731,590.729,1823.958,583.324,1820.492z"/><path fill="#7f635d" d="M479.347,1419.891c1.046-1.866,121.927-25.016,127.296-20.624c0,0-13.35,394.443-20.729,399.764       c-7.378,5.321-24.888,7.997-28.771-0.345c-10.499-22.559-13.058-268.18-11.19-305.978       c-2.205,11.865-72.849,298.741-78.638,305.978c-5.789,7.237-25.395,4.824-32.15,0c-3.96-2.829,17.875-137.332,26.148-236.53       C468.197,1479.617,473.901,1429.604,479.347,1419.891z"/><path fill="#634e4b" d="M441.524,1793.892c0.315,0,0.587-0.238,0.622-0.558c0.037-0.336,14.589-89.55,15.972-99.923        c0.576-4.32,1.24-12.229,1.942-20.601c0.985-11.736,2.1-25.038,3.124-29.748c0.674-3.102,1.35-9.737,2.204-18.137        c1.371-13.477,3.078-30.25,5.667-40.821c2.493-10.179,4.27-24.341,5.989-38.037c1.161-9.249,2.257-17.984,3.469-24.471        c2.945-15.766,6.447-47.503,6.482-47.821c0.038-0.344-0.211-0.654-0.555-0.692c-0.344-0.036-0.654,0.21-0.692,0.554        c-0.035,0.318-3.531,32.009-6.468,47.728c-1.219,6.524-2.317,15.277-3.48,24.545c-1.714,13.66-3.487,27.786-5.962,37.895        c-2.61,10.656-4.321,27.477-5.697,40.992c-0.817,8.03-1.523,14.965-2.182,17.998c-1.041,4.789-2.113,17.559-3.148,29.909        c-0.701,8.357-1.363,16.25-1.935,20.54c-1.385,10.387-15.939,99.616-15.976,99.952c-0.038,0.344,0.211,0.654,0.555,0.691        C441.478,1793.891,441.501,1793.892,441.524,1793.892z"/><path fill="#634e4b" d="M545.953,1494.43c0.671,0,1.308-0.393,1.587-1.049c6.434-15.121,15.034-20.234,15.12-20.284        c0.824-0.477,1.104-1.531,0.627-2.355c-0.477-0.824-1.531-1.104-2.355-0.627c-0.392,0.227-9.685,5.75-16.563,21.917        c-0.373,0.876,0.035,1.888,0.911,2.261C545.499,1494.386,545.728,1494.43,545.953,1494.43z"/><path fill="#634e4b" d="M562.345,1794.652c0.015,0,0.03-0.001,0.046-0.002c0.345-0.032,0.596-0.413,0.562-0.851        c-0.025-0.323-2.532-32.408-2.939-39.319c-0.407-6.918,4.062-101.59,2.709-115.891c-0.645-6.819-1.164-16.019-1.713-25.76        c-0.613-10.88-1.248-22.131-2.144-31.912c-1.583-17.271-4.313-53.637-3.766-63.527c0.532-9.616-0.573-27.28-0.584-27.457        c-0.028-0.439-0.34-0.78-0.675-0.752c-0.345,0.023-0.602,0.398-0.575,0.837c0.011,0.176,1.109,17.721,0.583,27.217        c-0.553,9.995,2.183,46.5,3.771,63.824c0.893,9.745,1.526,20.978,2.139,31.841c0.55,9.76,1.069,18.979,1.718,25.837        c1.351,14.282-3.122,108.904-2.715,115.819c0.408,6.93,2.916,39.035,2.942,39.358        C561.738,1794.332,562.02,1794.652,562.345,1794.652z"/><path fill="#434a59" d="M458.73,1473.079c-0.022-26.311,12.243-88.319,7.7-108.508       c-14.083-62.587-26.202-78.151-17.493-98.09c7.915-18.121,33.489-36.206,58.1-38.578c26.683-2.572,56.005,8.321,66.643,22.725       c19.659,26.618,40.452,123.802,44.051,194.485C620.216,1493.917,458.735,1478.864,458.73,1473.079z"/><path fill="#272c35" d="M611.459,1192.973c-0.593,0-1.123-0.418-1.243-1.022c-0.137-0.687,0.31-1.355,0.997-1.491       l33.316-6.618c0.69-0.134,1.355,0.31,1.491,0.997c0.137,0.687-0.31,1.355-0.997,1.491l-33.316,6.617       C611.624,1192.964,611.541,1192.973,611.459,1192.973z"/><path fill="#434a59" d="M506.028,1188.222l-4.084,17.456c-0.888,5.855,3.033,11.37,8.862,12.414        c4.658,0.835,7.608,0.585,13.369-0.626c4.8-1.009,6.885-5.881,6.333-12.24c-0.716-8.249-3.721-15.643-5.551-19.51        C520.787,1176.902,509.523,1177.04,506.028,1188.222z"/><path fill="#ff867a" d="M502.366,1202.335l-7.972,34.416c-0.249,3.891,23.084,3.378,21.613-0.757l-1.581-25.404        L502.366,1202.335z"/><path fill="#434a59" d="M518.518,1218.429c0,0,1.347,11.13,0.529,11.38c-0.818,0.249-26.355,2.964-26.487,1.933        c-0.131-1.031,4.186-28.339,3.994-30.691c-0.192-2.352-4.966-4.968-6.063-8.74c-1.184-4.071-4.935-13.154,4.246-17.631        c11.66-5.686,22.086-0.308,24.561,2.758c2.475,3.066,5.431,7.354,5.149,8.534        C524.166,1187.152,518.518,1218.429,518.518,1218.429z"/><path fill="#ff867a" d="M515.493,1186.769l3.554,0.61c0,0-0.806,3.617-3.769,4.747s-5.118-1.354-4.88-3.223        c0.159-1.246,0.929-2.382,2.227-2.951C513.688,1185.487,514.431,1186.302,515.493,1186.769z"/><path fill="#ff867a" d="M521.659,1185.438l-1.575,1.642c0,0,1.632,2.338,3.581,2.498        c1.95,0.16,2.077-2.133,1.174-3.755c-0.602-1.081-1.463-1.886-2.348-2.023        C521.767,1183.688,521.992,1184.707,521.659,1185.438z"/><path fill="#ff867a" d="M528.258,1196.254c0,0-0.791-1.427-4.159-0.478s-5.47,1.298-7.59,1.435        s-3.535,0.643-3.565,2.457c-0.03,1.814,2.112,5.866,7.18,7.051c5.069,1.185,6.891-2.266,7.747-4.573        C528.728,1199.838,529.275,1196.917,528.258,1196.254z"/><path fill="#c66c67" d="M521.216,1193.24c1.102-0.402,2.023-1.017,2.816-1.881c0.601-0.654,1.499,0.395,0.905,1.041         c-0.86,0.936-1.92,1.643-3.114,2.078C520.996,1194.781,520.383,1193.544,521.216,1193.24z"/><path fill="#434a59" d="M514.726,1187.411c0.135-0.049,0.543-0.229,0.887,0.226c0.259,0.343,0.466,0.807,0.498,1.245         c0.037,0.512-0.418,0.89-0.914,0.788C514.508,1189.529,513.82,1187.74,514.726,1187.411z"/><path fill="#434a59" d="M522.794,1185.563c0.135-0.049,0.543-0.229,0.887,0.226c0.259,0.343,0.466,0.807,0.498,1.246         c0.037,0.512-0.418,0.89-0.914,0.788C522.577,1187.681,521.889,1185.892,522.794,1185.563z"/><path fill="#fff" d="M527.195,1197.817c0,0-2.549-1.164-5.872-0.315c-3.323,0.848-4.879,4.331-4.879,4.331       s10.943-1.216,10.941-1.685C527.382,1199.678,527.195,1197.817,527.195,1197.817z"/><path fill="#434a59" d="M510.38,1227.653c0,0-21.687-3.644-23.982-4.369c-2.296-0.725-20.057-2.397-19.815,3.504      c0.242,5.901,1.933,13.411,5.437,16.673c3.504,3.262,34.402,1.208,42.272,1.208c7.869,0,17.052-15.707,17.173-18.486      s-4.176-4.712-8.733-4.591C518.174,1221.714,510.38,1227.653,510.38,1227.653z"/><circle cx="705.757" cy="1004.584" r="105.521" fill="#ff5f4a" transform="rotate(-45.001 705.748 1004.597)"/><polygon fill="#ff5f4a" points="744.113 1079.667 708.613 1187.408 657.49 1067.553"/><polygon fill="#fff" points="751.593 975.476 736.989 958.613 707.205 984.407 681.411 954.624 664.548 969.228 690.342 999.012 660.558 1024.806 675.162 1041.669 704.946 1015.875 730.74 1045.658 747.603 1031.054 721.809 1001.27"/><path fill="#434a59" d="M450.876,1268.351c-19.694,30.36,3.303,107.652,43.516,135.562      c40.213,27.91,145.186-14.219,142.573-24.368c-2.613-10.149-6.016-31.815-23.197-32.177      c-17.181-0.362-74.641,12.845-83.174,7.518c-8.534-5.327-34.772-83.999-45.284-91.248      C474.799,1256.39,455.84,1260.699,450.876,1268.351z"/><path fill="#ff867a" d="M625.451,1360.176c0,0-0.591,2.779,6.054,3.745c6.645,0.967,29.118-6.283,29.36-10.874      c0.242-4.591-35.039-2.084-36.609,0.651S625.451,1360.176,625.451,1360.176z"/><path fill="#c4c4c4" d="M738.305,1344.79l6.746,1.058l0,0.007c0.116,1.963-1.382,3.648-3.344,3.763        c0,0-128.058,7.5-128.559,7.427l-63.766-9.327c-1.524,0.049-2.81-1.124-2.899-2.646l-0.12-2.039l68.262,9.051L738.305,1344.79        z"/><polygon fill="#545f72" points="738.305 1344.79 614.625 1352.084 546.363 1343.033 677.722 1335.286"/><path fill="#c4c4c4" d="M613.769,1354.887l131.283-9.039l0.676-87.656c-0.166-2.822-2.589-4.975-5.411-4.808       l-121.14,7.144c-2.822,0.166-4.974,2.589-4.808,5.411L613.769,1354.887z"/><path fill="#fff" d="M676.781,1305.944c0.168,2.854,2.116,5.061,4.35,4.929c2.234-0.132,3.909-2.552,3.74-5.406       c-0.168-2.854-2.116-5.061-4.35-4.929C678.287,1300.67,676.613,1303.09,676.781,1305.944z"/><g><path fill="#333944" d="M501.818,1380.304c-0.257,0-0.518-0.042-0.774-0.131c-1.235-0.428-1.89-1.776-1.462-3.011      c3.263-9.423,15.622-19.139,24.648-25.634c-0.304-0.661-0.629-1.442-1.008-2.353c-0.78-1.874-1.751-4.206-2.979-6.669      c-2.813-5.642-29.503-66.334-30.638-68.915c-0.526-1.197,0.017-2.593,1.214-3.119c1.196-0.526,2.593,0.018,3.119,1.214      c0.277,0.631,27.779,63.168,30.541,68.709c1.3,2.607,2.305,5.022,3.113,6.961c0.341,0.818,0.711,1.707,0.996,2.331l0.486-0.012      l0.571,1.661c0.575,1.714-0.428,2.435-2.625,4.016c-4.9,3.525-19.812,14.253-22.964,23.358      C503.716,1379.69,502.799,1380.304,501.818,1380.304z"/></g><g><path fill="#333944" d="M552.218,1357.468c-9.502,0-24.554-2.918-25.288-3.061c-1.283-0.251-2.119-1.494-1.869-2.777      c0.251-1.283,1.496-2.123,2.777-1.869c0.2,0.039,20.077,3.893,27.691,2.784c8.168-1.191,19.184-1.312,19.649-1.317      c1.312-0.052,2.378,1.036,2.39,2.343c0.013,1.307-1.036,2.377-2.343,2.39c-0.111,0.001-11.165,0.123-19.014,1.267      C555.07,1357.396,553.712,1357.468,552.218,1357.468z"/></g><g><path fill="#333944" d="M540.546,1414.367c-15.691,0-35.033-0.878-46.08-7.57c-13.83-8.377-27.381-28.447-27.951-29.298      c-0.728-1.085-0.438-2.555,0.647-3.284c1.086-0.727,2.556-0.439,3.284,0.647c0.134,0.2,13.544,20.053,26.472,27.885      c12.007,7.273,36.135,7.003,52.107,6.823c1.25-0.014,2.455-0.027,3.606-0.037c15.666-0.129,59.865-16.531,60.31-16.697      c1.226-0.455,2.588,0.167,3.044,1.391c0.456,1.225-0.167,2.588-1.391,3.045c-1.847,0.688-45.43,16.859-61.924,16.995      c-1.146,0.009-2.346,0.023-3.591,0.037C546.426,1414.334,543.552,1414.367,540.546,1414.367z"/></g><g><path fill="#333944" d="M516.142,1249.443c-1.667,0-3.743-0.152-6.563-0.359c-2.885-0.211-6.476-0.474-11.34-0.721      c-16.757-0.85-27.709-3.986-28.167-4.119c-1.255-0.365-1.976-1.677-1.612-2.932c0.364-1.255,1.675-1.977,2.932-1.614      c0.107,0.031,10.923,3.118,27.087,3.938c4.917,0.249,8.537,0.515,11.446,0.728c6.633,0.485,8.095,0.555,9.766-0.412      c1.611-0.949,6.054-9.033,9.193-15.988c0.538-1.191,1.94-1.721,3.131-1.184c1.191,0.538,1.721,1.939,1.184,3.131      c-1.675,3.712-7.427,15.99-11.136,18.137C520.259,1249.092,518.673,1249.443,516.142,1249.443z"/></g></g><g><path fill="#5cbec6" d="M716.612,274.314h421.498c56.275,0,102.318,46.043,102.318,102.318v165.456       c0,56.275-46.043,102.318-102.318,102.318H716.612c-56.275,0-102.318-46.043-102.318-102.318V376.632       C614.294,320.357,660.337,274.314,716.612,274.314z"/><polygon fill="#5cbec6" points="982.501 621.315 1142.308 777.34 1099.685 621.315"/><path fill="#d47328" d="M1051.209,497.436c39.631-14.926,59.569-59.288,44.323-98.877      c-15.026-39.018-59.147-58.744-98.251-43.943c-29.169,11.041-47.622,38.044-49.199,67.323l-223.718,84.259l5.418,14.386      c2.84,7.539,8.885,13.426,16.498,16.063l36.052,12.49c0.69,0.239,1.443,0.229,2.126-0.028l15.148-5.705      c1.617-0.609,2.434-2.413,1.825-4.03l-4.757-12.63l9.354-3.523l4.813,12.78c0.578,1.534,2.289,2.309,3.823,1.731l13.154-4.954      c1.534-0.578,2.309-2.29,1.731-3.823l-4.005-10.634l8.901,3.486c6.124,2.398,13.041-0.552,15.549-6.632l3.857-9.353l2.845,7.555      c1.553,4.124,6.155,6.207,10.279,4.654l102.724-38.689C990.229,500.334,1021.97,508.449,1051.209,497.436z M1072.884,407.707      c3.914,10.391-1.337,21.988-11.729,25.901c-10.391,3.914-21.987-1.337-25.901-11.729c-3.914-10.391,1.337-21.987,11.729-25.901      C1057.374,392.065,1068.97,397.316,1072.884,407.707z"/><path fill="#ffae43" d="M1046.536,485.319c39.631-14.927,59.569-59.288,44.323-98.877      c-15.026-39.018-59.147-58.745-98.251-43.943c-29.17,11.041-47.622,38.044-49.199,67.323l-210.712,79.361      c-7.183,2.705-10.812,10.721-8.107,17.904l0.154,0.409c3.071,8.155,9.611,14.522,17.845,17.375l35.071,12.15      c0.69,0.239,1.443,0.229,2.126-0.028l15.149-5.705c1.617-0.609,2.433-2.413,1.825-4.03l-4.757-12.63l9.354-3.523l4.813,12.78      c0.578,1.534,2.29,2.309,3.823,1.731l13.154-4.954c1.534-0.578,2.309-2.29,1.731-3.824l-4.005-10.634l8.901,3.486      c6.124,2.399,13.041-0.552,15.549-6.632l3.857-9.353l2.845,7.555c1.553,4.124,6.155,6.207,10.278,4.654l102.725-38.689      C985.556,488.216,1017.297,496.331,1046.536,485.319z M1068.211,395.59c3.914,10.391-1.338,21.987-11.729,25.901      c-10.391,3.914-21.987-1.337-25.901-11.729c-3.914-10.391,1.337-21.987,11.729-25.901      C1052.701,379.948,1064.297,385.199,1068.211,395.59z"/><path fill="#d47328" d="M963.805,428.836c-0.891-2.31,0.69-5.092-1.62-4.201l-201.962,77.879      c-2.31,0.891-3.472,3.51-2.581,5.821c0.891,2.31,3.51,3.472,5.821,2.581l200.629-77.365      C966.403,432.659,964.696,431.146,963.805,428.836z"/><path fill="#d47328" d="M963.992,435.816c-11.906-30.875,3.527-65.679,34.401-77.584       c30.875-11.906,65.679,3.527,77.584,34.401c11.906,30.874-3.527,65.678-34.401,77.584       C1010.701,482.123,975.897,466.691,963.992,435.816z M1071.615,394.315c-10.978-28.469-43.071-42.699-71.54-31.721       c-28.469,10.978-42.699,43.071-31.721,71.54c10.978,28.469,43.071,42.699,71.54,31.721       C1068.363,454.877,1082.593,422.784,1071.615,394.315z"/></g></svg>