<svg xmlns="http://www.w3.org/2000/svg" data-name="Layer 1" viewBox="0 0 3000 3000"><path fill="#6bb37c" d="M2123.13,548c1.56-74.55-26.93-147-80.48-199-36.06-35-86-68.58-155.15-69.52-484.3-6.57-367.6,411.36-539,498.15C1009.57,949.18,595.05,653.63,377,857S60.3,1242,144.41,1565.34s-216.19,555.56,142.35,795,2263.67,350.7,2316.3-75c85.88-694.78,354.3-402.64,221.55-1099.15-94.65-496.63-431.05-337.85-583.15-400C2135.2,742.74,2121.65,618.76,2123.13,548Z" opacity=".27"/><path fill="#7aaadb" d="M411.89,2380.47S60,2200.24,53.59,1780.23c0,0,468.07-165.27,673.27,156.83s116.21,522.83,116.21,522.83S625,2518.15,411.89,2380.47Z"/><rect width="10.83" height="1017.65" x="452.02" y="1619.13" fill="#5e6e97" transform="rotate(-49.28 457.425 2127.95)"/><rect width="236.92" height="10.83" x="110.46" y="2030.25" fill="#5e6e97" transform="translate(-36.93 4.49)"/><rect width="313.66" height="10.83" x="273.31" y="2253.03" fill="#5e6e97" transform="rotate(-4.75 430.292 2258.929)"/><rect width="351.61" height="10.83" x="535.01" y="2141.01" fill="#5e6e97" transform="rotate(-80.61 710.915 2146.488)"/><rect width="357.87" height="10.83" x="320.65" y="1949.66" fill="#5e6e97" transform="rotate(-80.61 499.664 1955.14)"/><path fill="#8096cc" d="M425.24,2538.39s-74.79-100.24,157.07-138.79S2325,2183.7,2519.43,2314.78s254.29,277.58,82.27,354.69-575.9,54-912.47,15.42S1046,2700.31,746.85,2708,425.24,2538.39,425.24,2538.39Z" opacity=".46"/><path fill="#7aaadb" d="M2370.19,1571.07s136.91-236.73,413.63-219.35c0,0,84.4,336-138.24,462.72s-350.09,54.07-350.09,54.07S2268.49,1713,2370.19,1571.07Z"/><rect width="694.58" height="10.83" x="2186.7" y="1610.65" fill="#5e6e97" transform="rotate(-46.63 2533.995 1616.065)"/><rect width="166.17" height="10.83" x="2523.52" y="1455.64" fill="#5e6e97" transform="rotate(-86.72 2606.585 1461.06)"/><rect width="10.83" height="219.97" x="2444.12" y="1480.2" fill="#5e6e97" transform="rotate(-.21 2498.948 1622.507)"/><rect width="10.83" height="232.68" x="2503.23" y="1675.98" fill="#5e6e97" transform="rotate(-75.52 2508.829 1792.32)"/><rect width="10.83" height="236.82" x="2640.14" y="1536.13" fill="#5e6e97" transform="rotate(-75.52 2645.69 1654.533)"/><path fill="#90aebc" d="M2260.16,2025s216.58-330.71,659.59-286.69c0,0,138.63,488.53-216.3,655.33s-559.67,53.58-559.67,53.58S2098.93,2222,2260.16,2025Z"/><rect width="1026.72" height="10.83" x="2009.4" y="2095.56" fill="#5e6e97" transform="rotate(-42.42 2522.716 2100.95)"/><rect width="238.09" height="10.83" x="2518.28" y="1877.83" fill="#5e6e97" transform="rotate(-86.76 2637.51 1883.222)"/><rect width="10.83" height="316.13" x="2381.93" y="1899.91" fill="#5e6e97" transform="rotate(-.66 2397.18 2066.083)"/><rect width="10.83" height="374.49" x="2478.66" y="2165.22" fill="#5e6e97" transform="rotate(-74.66 2484.003 2352.46)"/><rect width="10.83" height="381.16" x="2696.29" y="1973.36" fill="#5e6e97" transform="matrix(.26 -.96 .96 .26 -99.95 4196.81)"/><path fill="#5c81a7" d="M416.54,1766.07s-199.7-125.42-182.65-374.79c0,0,285.72-73.3,391.4,128.5s43,316.11,43,316.11S536.09,1858.94,416.54,1766.07Z"/><rect width="10.83" height="607.2" x="450.66" y="1315.15" fill="#5e6e97" transform="rotate(-44.34 455.99 1618.643)"/><rect width="10.83" height="141.01" x="319.76" y="1481.47" fill="#5e6e97" transform="rotate(-85.96 325.118 1551.939)"/><rect width="10.83" height="186.62" x="428" y="1601.36" fill="#5e6e97" transform="rotate(-89.67 433.338 1694.63)"/><rect width="209.03" height="10.83" x="500.87" y="1637.65" fill="#5e6e97" transform="rotate(-75.81 605.417 1643.09)"/><rect width="212.75" height="10.83" x="383.27" y="1513.06" fill="#5e6e97" transform="rotate(-75.81 489.674 1518.499)"/><polygon fill="#02a77e" points="1274.78 2269.21 546.06 1402.98 939.85 1002.23 1668.57 1868.46 1274.78 2269.21"/><polygon fill="#98be7b" points="1279.4 2193.86 608.78 1396.69 937.62 1062.04 1608.23 1859.21 1279.4 2193.86"/><path fill="#02a77e" d="M941.39,1003.59,834,1112.86s103.13,148.5,220.57,29Z"/><path fill="#02a77e" d="M1664.53,1870.6l-107.37,109.27s-126.62-124.6-9.18-244.11Z"/><path fill="#02a77e" d="M548.47,1403.45l107.38-109.27s126.62,124.59,9.18,244.11Z"/><path fill="#02a77e" d="M1278.33,2263.63l107.37-109.27s-103.13-148.51-220.57-29Z"/><ellipse cx="1118.98" cy="1643.74" fill="#02a77e" rx="170.5" ry="187.53"/><path fill="#98be7b" d="M1142.8,1716.34a66.91,66.91,0,0,0,1.59-28.32q-2.19-15.42-10-37.85c-.22-.65-.44-1.28-.66-1.9l44.58-46.54q15.6,19.47,23.41,46.33l22.16-23.13a147.8,147.8,0,0,0-12-27.48,153.32,153.32,0,0,0-12.18-18.06l24.74-25.83-16.73-19.39-25.15,26.26a84.46,84.46,0,0,0-20.44-14q-16.14-7.65-31.48-5.17t-27.27,14.92q-15.25,15.93-16.77,36.74t9.57,52.08l1.48,4-45.34,47.34a160.71,160.71,0,0,1-17.3-25.54,158,158,0,0,1-13.31-32l-22.79,23.78q3.76,13.13,13.37,29.54a207.47,207.47,0,0,0,18.53,26.67l-15.94,16.64,16.73,19.38,16.71-17.44q18.46,16.68,35.93,19.71,24,4.17,43.5-16.13Q1139,1729.23,1142.8,1716.34Zm-18.49-97.41a45.23,45.23,0,0,1-1.53-17q.9-7.93,7.38-14.7,9-9.37,20.85-6.47a32.61,32.61,0,0,1,8.59,3.61l-34.79,36.32C1124.63,1620.09,1124.46,1619.49,1124.31,1618.93Zm-44.92,97.38a29.79,29.79,0,0,1-8-3l35.31-36.87q2.68,10.08,1.61,18a26.5,26.5,0,0,1-7.59,14.92Q1091.57,1718.92,1079.39,1716.31Z"/><polygon fill="#02a77e" points="1806.21 1992.34 1077.5 1126.11 1471.28 725.36 2200 1591.59 1806.21 1992.34"/><polygon fill="#98be7b" points="1810.84 1916.99 1140.22 1119.82 1469.06 785.17 2139.67 1582.34 1810.84 1916.99"/><path fill="#02a77e" d="M1472.82,726.71,1365.45,836s103.13,148.5,220.57,29Z"/><path fill="#02a77e" d="M2196,1593.73,2088.59,1703s-126.61-124.6-9.17-244.12Z"/><path fill="#02a77e" d="M1079.91,1126.58l107.37-109.28s126.62,124.6,9.18,244.12Z"/><path fill="#02a77e" d="M1809.76,1986.76l107.38-109.27S1814,1729,1696.57,1848.5Z"/><ellipse cx="1650.41" cy="1366.87" fill="#02a77e" rx="170.5" ry="187.53"/><path fill="#98be7b" d="M1674.24,1439.46a66.75,66.75,0,0,0,1.58-28.32q-2.17-15.42-10-37.84c-.22-.65-.43-1.28-.65-1.91l44.58-46.54q15.59,19.49,23.4,46.34l22.16-23.14a146.68,146.68,0,0,0-12-27.47,150.9,150.9,0,0,0-12.18-18.06l24.75-25.83-16.73-19.39L1714,1283.56a84.27,84.27,0,0,0-20.45-14q-16.12-7.63-31.48-5.16t-27.26,14.92q-15.27,15.93-16.78,36.74t9.58,52.07l1.48,4-45.34,47.34a161.52,161.52,0,0,1-17.31-25.55,158.87,158.87,0,0,1-13.31-32l-22.78,23.79q3.76,13.13,13.36,29.54a206.74,206.74,0,0,0,18.54,26.66l-15.94,16.65L1563,1478l16.7-17.44q18.48,16.68,35.93,19.71,24.06,4.17,43.51-16.13Q1670.46,1452.36,1674.24,1439.46Zm-18.49-97.4a45.28,45.28,0,0,1-1.54-17q.9-7.93,7.39-14.7,9-9.39,20.84-6.47a32.66,32.66,0,0,1,8.6,3.61l-34.8,36.32C1656.06,1343.22,1655.9,1342.62,1655.75,1342.06Zm-44.92,97.38a30.19,30.19,0,0,1-8-3l35.32-36.87q2.67,10.08,1.61,18a26.53,26.53,0,0,1-7.59,14.92Q1623,1442,1610.83,1439.44Z"/><path fill="#fbd909" d="M1835.35,1341.67s-545.71,408-487,703.36,218.55,415.57,252.11,434S2254.73,2585,2452,2451.16s287.65-293.58,268.55-530.74c-14.69-182.29-142.67-290.75-339.88-433.82S2255,1309.36,2255,1309.36s0-258.45,163.64-286.14c0,0-155.25-143.07-256-83.07s-109.09,69.23-205.6,55.38-260.16-64.61-344.08,41.54-134.27,110.76-134.27,110.76,46.15,36.92,146.86,69.23S1822.76,1281.67,1835.35,1341.67Z"/><path fill="#f8c318" d="M2025.4,1037.54,2163,1154.44a753.7,753.7,0,0,1,93.29,127.93c5.21-67,31.35-237,162.34-259.15,0,0-155.25-143.07-256-83.07s-109.09,69.23-205.6,55.38c-3.66-.52-7.42-1.11-11.26-1.72A681.54,681.54,0,0,1,2025.4,1037.54Z"/><path fill="#f8c318" d="M2720.5,1920.42c-14.69-182.29-142.67-290.75-339.88-433.82-20.87-15.13-38.71-29-54-41.83q6,19.51,11.13,39.59,12.14,99.38,24.28,198.75,5.29,154.41-58.54,288.06-41.13,139-140.56,240.61-92.35,109.36-218.76,154.59-121.51,70.22-261.9,64.39a629.23,629.23,0,0,1-163-21.66c37.06,40.94,68.37,62.9,81.2,70,33.57,18.46,654.23,105.94,851.45-27.9S2739.6,2157.58,2720.5,1920.42Z"/><rect width="469.54" height="64.1" x="1799.64" y="1295.52" fill="#c28118" rx="10.48"/><ellipse cx="2058.79" cy="1911.62" fill="#f3a221" rx="316.76" ry="348.39"/><path fill="#f9c915" d="M2178.86,1967.49q-11.24-21.93-33.11-38.12t-59.55-32.73l-3.18-1.43-1.46-125.57q43.82,1.18,87,23.36l-.73-62.43a222.28,222.28,0,0,0-49.19-16.68,233.24,233.24,0,0,0-37.76-4.52l-.8-69.7-45.14.63.82,70.84a147.52,147.52,0,0,0-43.11,13q-29.84,14.57-46.12,40.7t-15.91,59.71q.5,43,24.39,71.52t76.64,51.34l6.88,2.87,1.48,127.73a248.87,248.87,0,0,1-53.51-6.27,238.92,238.92,0,0,1-56.46-20.42l.74,64.19q21,10.91,53.48,17.22a319.27,319.27,0,0,0,56.45,5.84l.52,44.91,45.14-.63-.54-47.06q44-6.66,69.76-29,35.52-30.83,34.89-85.6Q2190.09,1989.42,2178.86,1967.49Zm-144.08-95.17a71,71,0,0,1-23-19.11q-8.7-11.37-8.91-29.62-.29-25.32,18.29-39.42a60.89,60.89,0,0,1,15.32-8.34l1.13,98C2036.61,1873.31,2035.66,1872.8,2034.78,1872.32Zm64,190.23a57.63,57.63,0,0,1-13.78,8.15l-1.15-99.48q15.85,8.7,24.28,20.23,8.7,12,8.92,30.21Q2117.4,2047.58,2098.83,2062.55Z"/><rect width="202.89" height="84.05" x="605.61" y="1825.46" fill="#f3a021"/><rect width="214.29" height="84.05" x="809.5" y="1825.46" fill="#f6b61c"/><rect width="107.02" height="84.05" x="1024.4" y="1825.46" fill="#f9c915"/><rect width="5.85" height="84.38" x="626.18" y="1825.46" fill="#c28118"/><rect width="5.85" height="84.38" x="662.06" y="1825.46" fill="#c28118"/><rect width="5.85" height="84.38" x="697.94" y="1825.46" fill="#c28118"/><rect width="5.85" height="84.38" x="733.82" y="1825.46" fill="#c28118"/><rect width="5.85" height="84.38" x="769.7" y="1825.46" fill="#c28118"/><rect width="5.85" height="84.38" x="805.58" y="1825.46" fill="#c28118"/><rect width="5.85" height="84.38" x="841.46" y="1825.46" fill="#c28118"/><rect width="5.85" height="84.38" x="877.34" y="1825.46" fill="#c28118"/><rect width="5.85" height="84.38" x="913.22" y="1825.46" fill="#c28118"/><rect width="5.85" height="84.38" x="949.1" y="1825.46" fill="#c28118"/><rect width="5.85" height="84.38" x="984.98" y="1825.46" fill="#c28118"/><rect width="5.85" height="84.38" x="1020.86" y="1825.46" fill="#c28118"/><rect width="5.85" height="84.38" x="1056.74" y="1825.46" fill="#c28118"/><rect width="5.85" height="84.38" x="1092.62" y="1825.46" fill="#c28118"/><rect width="5.85" height="84.38" x="1128.5" y="1825.46" fill="#c28118"/><rect width="202.89" height="84.05" x="606.07" y="1913.66" fill="#f3a021"/><rect width="214.29" height="84.05" x="809.96" y="1913.66" fill="#f6b61c"/><rect width="107.02" height="84.05" x="1024.86" y="1913.66" fill="#f9c915"/><rect width="5.85" height="84.38" x="626.64" y="1913.66" fill="#c28118"/><rect width="5.85" height="84.38" x="662.52" y="1913.66" fill="#c28118"/><rect width="5.85" height="84.38" x="698.4" y="1913.66" fill="#c28118"/><rect width="5.85" height="84.38" x="734.28" y="1913.66" fill="#c28118"/><rect width="5.85" height="84.38" x="770.16" y="1913.66" fill="#c28118"/><rect width="5.85" height="84.38" x="806.04" y="1913.66" fill="#c28118"/><rect width="5.85" height="84.38" x="841.92" y="1913.66" fill="#c28118"/><rect width="5.85" height="84.38" x="877.8" y="1913.66" fill="#c28118"/><rect width="5.85" height="84.38" x="913.68" y="1913.66" fill="#c28118"/><rect width="5.85" height="84.38" x="949.56" y="1913.66" fill="#c28118"/><rect width="5.85" height="84.38" x="985.44" y="1913.66" fill="#c28118"/><rect width="5.85" height="84.38" x="1021.32" y="1913.66" fill="#c28118"/><rect width="5.85" height="84.38" x="1057.2" y="1913.66" fill="#c28118"/><rect width="5.85" height="84.38" x="1093.08" y="1913.66" fill="#c28118"/><rect width="5.85" height="84.38" x="1128.96" y="1913.66" fill="#c28118"/><rect width="202.89" height="84.05" x="582.59" y="2001.75" fill="#f3a021"/><rect width="214.29" height="84.05" x="786.48" y="2001.75" fill="#f6b61c"/><rect width="107.02" height="84.05" x="1001.39" y="2001.75" fill="#f9c915"/><rect width="5.85" height="84.38" x="603.17" y="2001.75" fill="#c28118"/><rect width="5.85" height="84.38" x="639.04" y="2001.75" fill="#c28118"/><rect width="5.85" height="84.38" x="674.92" y="2001.75" fill="#c28118"/><rect width="5.85" height="84.38" x="710.8" y="2001.75" fill="#c28118"/><rect width="5.85" height="84.38" x="746.68" y="2001.75" fill="#c28118"/><rect width="5.85" height="84.38" x="782.56" y="2001.75" fill="#c28118"/><rect width="5.85" height="84.38" x="818.44" y="2001.75" fill="#c28118"/><rect width="5.85" height="84.38" x="854.32" y="2001.75" fill="#c28118"/><rect width="5.85" height="84.38" x="890.2" y="2001.75" fill="#c28118"/><rect width="5.85" height="84.38" x="926.08" y="2001.75" fill="#c28118"/><rect width="5.85" height="84.38" x="961.96" y="2001.75" fill="#c28118"/><rect width="5.85" height="84.38" x="997.84" y="2001.75" fill="#c28118"/><rect width="5.85" height="84.38" x="1033.72" y="2001.75" fill="#c28118"/><rect width="5.85" height="84.38" x="1069.6" y="2001.75" fill="#c28118"/><rect width="5.85" height="84.38" x="1105.48" y="2001.75" fill="#c28118"/><rect width="202.89" height="84.05" x="542.91" y="2093.07" fill="#f3a021"/><rect width="214.29" height="84.05" x="746.8" y="2093.07" fill="#f6b61c"/><rect width="107.02" height="84.05" x="961.71" y="2093.07" fill="#f9c915"/><rect width="5.85" height="84.38" x="563.49" y="2093.07" fill="#c28118"/><rect width="5.85" height="84.38" x="599.37" y="2093.07" fill="#c28118"/><rect width="5.85" height="84.38" x="635.25" y="2093.07" fill="#c28118"/><rect width="5.85" height="84.38" x="671.13" y="2093.07" fill="#c28118"/><rect width="5.85" height="84.38" x="707.01" y="2093.07" fill="#c28118"/><rect width="5.85" height="84.38" x="742.89" y="2093.07" fill="#c28118"/><rect width="5.85" height="84.38" x="778.77" y="2093.07" fill="#c28118"/><rect width="5.85" height="84.38" x="814.64" y="2093.07" fill="#c28118"/><rect width="5.85" height="84.38" x="850.52" y="2093.07" fill="#c28118"/><rect width="5.85" height="84.38" x="886.4" y="2093.07" fill="#c28118"/><rect width="5.85" height="84.38" x="922.28" y="2093.07" fill="#c28118"/><rect width="5.85" height="84.38" x="958.16" y="2093.07" fill="#c28118"/><rect width="5.85" height="84.38" x="994.04" y="2093.07" fill="#c28118"/><rect width="5.85" height="84.38" x="1029.92" y="2093.07" fill="#c28118"/><rect width="5.85" height="84.38" x="1065.8" y="2093.07" fill="#c28118"/><rect width="202.89" height="84.05" x="542.91" y="2181.15" fill="#f3a021"/><rect width="214.29" height="84.05" x="746.8" y="2181.15" fill="#f6b61c"/><rect width="107.02" height="84.05" x="961.71" y="2181.15" fill="#f9c915"/><rect width="5.85" height="84.38" x="563.49" y="2181.15" fill="#c28118"/><rect width="5.85" height="84.38" x="599.37" y="2181.15" fill="#c28118"/><rect width="5.85" height="84.38" x="635.25" y="2181.15" fill="#c28118"/><rect width="5.85" height="84.38" x="671.13" y="2181.15" fill="#c28118"/><rect width="5.85" height="84.38" x="707.01" y="2181.15" fill="#c28118"/><rect width="5.85" height="84.38" x="742.89" y="2181.15" fill="#c28118"/><rect width="5.85" height="84.38" x="778.77" y="2181.15" fill="#c28118"/><rect width="5.85" height="84.38" x="814.64" y="2181.15" fill="#c28118"/><rect width="5.85" height="84.38" x="850.52" y="2181.15" fill="#c28118"/><rect width="5.85" height="84.38" x="886.4" y="2181.15" fill="#c28118"/><rect width="5.85" height="84.38" x="922.28" y="2181.15" fill="#c28118"/><rect width="5.85" height="84.38" x="958.16" y="2181.15" fill="#c28118"/><rect width="5.85" height="84.38" x="994.04" y="2181.15" fill="#c28118"/><rect width="5.85" height="84.38" x="1029.92" y="2181.15" fill="#c28118"/><rect width="5.85" height="84.38" x="1065.8" y="2181.15" fill="#c28118"/><rect width="202.89" height="84.05" x="641.37" y="2270.86" fill="#f3a021"/><rect width="214.29" height="84.05" x="845.26" y="2270.86" fill="#f6b61c"/><rect width="107.02" height="84.05" x="1060.17" y="2270.86" fill="#f9c915"/><rect width="5.85" height="84.38" x="661.95" y="2270.86" fill="#c28118"/><rect width="5.85" height="84.38" x="697.83" y="2270.86" fill="#c28118"/><rect width="5.85" height="84.38" x="733.71" y="2270.86" fill="#c28118"/><rect width="5.85" height="84.38" x="769.58" y="2270.86" fill="#c28118"/><rect width="5.85" height="84.38" x="805.46" y="2270.86" fill="#c28118"/><rect width="5.85" height="84.38" x="841.34" y="2270.86" fill="#c28118"/><rect width="5.85" height="84.38" x="877.22" y="2270.86" fill="#c28118"/><rect width="5.85" height="84.38" x="913.1" y="2270.86" fill="#c28118"/><rect width="5.85" height="84.38" x="948.98" y="2270.86" fill="#c28118"/><rect width="5.85" height="84.38" x="984.86" y="2270.86" fill="#c28118"/><rect width="5.85" height="84.38" x="1020.74" y="2270.86" fill="#c28118"/><rect width="5.85" height="84.38" x="1056.62" y="2270.86" fill="#c28118"/><rect width="5.85" height="84.38" x="1092.5" y="2270.86" fill="#c28118"/><rect width="5.85" height="84.38" x="1128.38" y="2270.86" fill="#c28118"/><rect width="5.85" height="84.38" x="1164.26" y="2270.86" fill="#c28118"/><rect width="202.89" height="84.05" x="641.37" y="2358.95" fill="#f3a021"/><rect width="214.29" height="84.05" x="845.26" y="2358.95" fill="#f6b61c"/><rect width="107.02" height="84.05" x="1060.17" y="2358.95" fill="#f9c915"/><rect width="5.85" height="84.38" x="661.95" y="2358.95" fill="#c28118"/><rect width="5.85" height="84.38" x="697.83" y="2358.95" fill="#c28118"/><rect width="5.85" height="84.38" x="733.71" y="2358.95" fill="#c28118"/><rect width="5.85" height="84.38" x="769.58" y="2358.95" fill="#c28118"/><rect width="5.85" height="84.38" x="805.46" y="2358.95" fill="#c28118"/><rect width="5.85" height="84.38" x="841.34" y="2358.95" fill="#c28118"/><rect width="5.85" height="84.38" x="877.22" y="2358.95" fill="#c28118"/><rect width="5.85" height="84.38" x="913.1" y="2358.95" fill="#c28118"/><rect width="5.85" height="84.38" x="948.98" y="2358.95" fill="#c28118"/><rect width="5.85" height="84.38" x="984.86" y="2358.95" fill="#c28118"/><rect width="5.85" height="84.38" x="1020.74" y="2358.95" fill="#c28118"/><rect width="5.85" height="84.38" x="1056.62" y="2358.95" fill="#c28118"/><rect width="5.85" height="84.38" x="1092.5" y="2358.95" fill="#c28118"/><rect width="5.85" height="84.38" x="1128.38" y="2358.95" fill="#c28118"/><rect width="5.85" height="84.38" x="1164.26" y="2358.95" fill="#c28118"/><rect width="202.89" height="84.05" x="607.87" y="2449.59" fill="#f3a021"/><rect width="214.29" height="84.05" x="811.76" y="2449.59" fill="#f6b61c"/><rect width="107.02" height="84.05" x="1026.66" y="2449.59" fill="#f9c915"/><rect width="5.85" height="84.38" x="628.44" y="2449.59" fill="#c28118"/><rect width="5.85" height="84.38" x="664.32" y="2449.59" fill="#c28118"/><rect width="5.85" height="84.38" x="700.2" y="2449.59" fill="#c28118"/><rect width="5.85" height="84.38" x="736.08" y="2449.59" fill="#c28118"/><rect width="5.85" height="84.38" x="771.96" y="2449.59" fill="#c28118"/><rect width="5.85" height="84.38" x="807.84" y="2449.59" fill="#c28118"/><rect width="5.85" height="84.38" x="843.72" y="2449.59" fill="#c28118"/><rect width="5.85" height="84.38" x="879.6" y="2449.59" fill="#c28118"/><rect width="5.85" height="84.38" x="915.48" y="2449.59" fill="#c28118"/><rect width="5.85" height="84.38" x="951.36" y="2449.59" fill="#c28118"/><rect width="5.85" height="84.38" x="987.24" y="2449.59" fill="#c28118"/><rect width="5.85" height="84.38" x="1023.12" y="2449.59" fill="#c28118"/><rect width="5.85" height="84.38" x="1059" y="2449.59" fill="#c28118"/><rect width="5.85" height="84.38" x="1094.88" y="2449.59" fill="#c28118"/><rect width="5.85" height="84.38" x="1130.76" y="2449.59" fill="#c28118"/><path fill="#2c285a" d="M732.32,2408s12.91,53.24,12.91,69.21S696.17,2589,685.84,2599.66s-37.12,52-64.55,37.27c-5.88-3.15-15-23.62-21.76-48.75a91.2,91.2,0,0,1,20.35-85l47.89-52.55L665.18,2400Z"/><path fill="#efb89e" d="M1170.58,1020s-8.12-20.46,9-45.56,19.84-65.1,19.84-65.1,13.53-21.38,19.85,0c0,0-11.73,42.78-3.61,48.36s22.55,6.51,27.06.93S1259.88,874,1259.88,874s7.21-11.16,10.82,2.79l-6.31,54.86,16.23-58.58s9-.93,9,7.44l-8.12,64.16,13.53-54.86s5.42-6.51,7.22.93c0,0-2.71,66-4.51,76.25s-12.63,24.18-23.45,24.18S1170.58,1020,1170.58,1020Z"/><path fill="#2c285a" d="M789.34,2413.24s-5.65,52.58-3.8,67.9,58,101.43,68.68,110.42,40.07,45.44,63.51,28.12c5-3.72,11-24.42,14.29-49.32,4-29.77-6.9-59.78-28.54-79.15l-50-44.74L850,2397.66Z"/><path fill="#464584" d="M555,1517.1S536.3,1655.66,543.18,1787s117.05,663.67,117.05,663.67h89.5l-29.26-761.27H736l48.2,761.27H859.9s37.86-770.14,34.42-834-22.56-113.72-22.56-113.72Z"/><path fill="#37346c" d="M700,2076.67a409.38,409.38,0,0,1-105.4,39.78c31.47,169,65.65,334.19,65.65,334.19h89.5l-14.89-387.41Q717.83,2070.67,700,2076.67Z"/><path fill="#f1c7a5" d="M1146.22,1034.85s5.49-20.37,18.18-35.51a50.5,50.5,0,0,1,12.49-11c21.65-13,74-5.58,80.28-6.51s27.06-1.86,31.57-16.74c3.11-10.27,4.51-31.62,5.07-43.86.25-5.49.34-9.15.34-9.15s7.22-16.73,15.34-.93c0,0,3.6,64.17-2.71,74.4s-18.94,18.59-35.18,21.38-44.2,13.95-52.31,23.25-48.71,60.45-48.71,60.45Z"/><path fill="#37346c" d="M879.46,1957.79q-53.36,59.22-120.55,94l25.25,398.89H859.9s13-264.44,23.07-496.26Q881.23,1956.09,879.46,1957.79Z"/><path fill="#5a5ba8" d="M539.74,1041.67l110.16-35.49,93-3.55L856.45,1063l151.47,138.41,142.87-188.1,63.69,53.24-163.26,232.57c-14.5,20.65-42.35,25.59-62.71,11.11l-113.12-80.43L908.09,1677s-101.55-29.43-99.83-166.06H663.67s5.17,155.41-43,162.51c-75.67,11.15-99.83,10.65-99.83,10.65Z"/><path fill="#525298" d="M717.44,1279.91q-96-.3-183.78-32l-12.85,436.13s24.16.5,99.83-10.65c48.2-7.1,43-162.51,43-162.51H808.26C806.54,1647.52,908.09,1677,908.09,1677l-30.84-421.64Q801.47,1283.17,717.44,1279.91Z"/><path fill="#525298" d="M1111.78,1111.51q-43.79,48.62-96.91,80.73l-7,9.14-3.38-3.1a413.1,413.1,0,0,1-72.24,32.11q-16.41,8.89-33.26,16.2l89.47,63.61c20.36,14.48,48.21,9.54,62.71-11.11l163.26-232.57-38.37-32.07A441.91,441.91,0,0,1,1111.78,1111.51Z"/><polygon fill="#e6e7e8" points="663.67 988.44 636.84 1005.03 632.69 1022.15 663.67 1510.89 808.26 1510.89 784.16 1023.93 735.96 999.09 663.67 988.44"/><path fill="#cfd1d2" d="M763.9,1279.91a552.93,552.93,0,0,1-115.66-12.4l15.43,243.38H808.26L796.83,1280Q780.53,1280.54,763.9,1279.91Z"/><polygon fill="#efb89e" points="753.18 977.79 749.73 1041.67 725.64 1045.22 649.9 1006.18 660.23 881.97 753.18 977.79"/><path fill="#f1c7a5" d="M817.23,760s5.63,176.86-33.75,231.95a61.77,61.77,0,0,1-30.93,2.9c-16.88-2.9-81.56-23.2-92.81-55.09S620.37,818,645.68,777.38,744.11,673,817.23,760Z"/><path fill="#5a5ba8" d="M640.05,818s22.5,5.8,25.31,37.69l14.07-75.38s42.18-20.3,50.62-34.8c0,0,39.37,43.49,64.68,40.59s39.38-5.79,56.25-29,25.31-72.48-2.81-78.28-42.19,2.9-75.94,0S716,641.11,659.74,664.3s-95.62,43.49-90,84.08,67.5,133.37,78.75,162.37L640.05,818"/><polygon fill="#f1a020" points="722.19 1052.32 692.93 1087.81 718.75 1107.33 704.98 1377.06 751.46 1424.97 782.44 1373.51 753.18 1103.78 766.95 1084.26 746.29 1050.55 722.19 1052.32"/><path fill="#f1c7a5" d="M492.12,1503.05l20.08,6.5s10.33-31.35,18.36-36.08,62,0,62,0,10.9,5.92,1.14,17.16c0,0-51.06.59-47,1.18s47.62,6.51,47.62,6.51,9.75,5.91,1.72,16.56l-51.07-3,48.77,14.2s9.18,9.46-2.29,16.56l-48.77-11.24,44.75,21.29s4.59,12.43-6.31,11.83l-40.16-16-14.35,34.31s-4.59,5.32-14.91-.59c-5.17-3-12.63-16-12.63-16l-24.09-10.06Z"/><path fill="#4f4f93" d="M539.74,1041.67S291.88,1304.3,285,1361.09,487.36,1591,487.36,1591l27.1-83.85s-130-136.18-116.18-161S537.7,1194.37,537.7,1194.37Z"/><rect width="202.89" height="84.05" x="1040.62" y="1825.46" fill="#f3a021"/><rect width="214.29" height="84.05" x="1244.51" y="1825.46" fill="#f6b61c"/><rect width="107.02" height="84.05" x="1459.41" y="1825.46" fill="#f9c915"/><rect width="5.85" height="84.38" x="1061.19" y="1825.46" fill="#c28118"/><rect width="5.85" height="84.38" x="1097.07" y="1825.46" fill="#c28118"/><rect width="5.85" height="84.38" x="1132.95" y="1825.46" fill="#c28118"/><rect width="5.85" height="84.38" x="1168.83" y="1825.46" fill="#c28118"/><rect width="5.85" height="84.38" x="1204.71" y="1825.46" fill="#c28118"/><rect width="5.85" height="84.38" x="1240.59" y="1825.46" fill="#c28118"/><rect width="5.85" height="84.38" x="1276.47" y="1825.46" fill="#c28118"/><rect width="5.85" height="84.38" x="1312.35" y="1825.46" fill="#c28118"/><rect width="5.85" height="84.38" x="1348.23" y="1825.46" fill="#c28118"/><rect width="5.85" height="84.38" x="1384.11" y="1825.46" fill="#c28118"/><rect width="5.85" height="84.38" x="1419.99" y="1825.46" fill="#c28118"/><rect width="5.85" height="84.38" x="1455.87" y="1825.46" fill="#c28118"/><rect width="5.85" height="84.38" x="1491.75" y="1825.46" fill="#c28118"/><rect width="5.85" height="84.38" x="1527.63" y="1825.46" fill="#c28118"/><rect width="5.85" height="84.38" x="1563.51" y="1825.46" fill="#c28118"/><rect width="202.89" height="84.05" x="1041.08" y="1913.66" fill="#f3a021"/><rect width="214.29" height="84.05" x="1244.97" y="1913.66" fill="#f6b61c"/><rect width="107.02" height="84.05" x="1459.88" y="1913.66" fill="#f9c915"/><rect width="5.85" height="84.38" x="1061.66" y="1913.66" fill="#c28118"/><rect width="5.85" height="84.38" x="1097.54" y="1913.66" fill="#c28118"/><rect width="5.85" height="84.38" x="1133.42" y="1913.66" fill="#c28118"/><rect width="5.85" height="84.38" x="1169.3" y="1913.66" fill="#c28118"/><rect width="5.85" height="84.38" x="1205.18" y="1913.66" fill="#c28118"/><rect width="5.85" height="84.38" x="1241.05" y="1913.66" fill="#c28118"/><rect width="5.85" height="84.38" x="1276.93" y="1913.66" fill="#c28118"/><rect width="5.85" height="84.38" x="1312.81" y="1913.66" fill="#c28118"/><rect width="5.85" height="84.38" x="1348.69" y="1913.66" fill="#c28118"/><rect width="5.85" height="84.38" x="1384.57" y="1913.66" fill="#c28118"/><rect width="5.85" height="84.38" x="1420.45" y="1913.66" fill="#c28118"/><rect width="5.85" height="84.38" x="1456.33" y="1913.66" fill="#c28118"/><rect width="5.85" height="84.38" x="1492.21" y="1913.66" fill="#c28118"/><rect width="5.85" height="84.38" x="1528.09" y="1913.66" fill="#c28118"/><rect width="5.85" height="84.38" x="1563.97" y="1913.66" fill="#c28118"/><rect width="202.89" height="84.05" x="1017.6" y="2001.75" fill="#f3a021"/><rect width="214.29" height="84.05" x="1221.49" y="2001.75" fill="#f6b61c"/><rect width="107.02" height="84.05" x="1436.4" y="2001.75" fill="#f9c915"/><rect width="5.85" height="84.38" x="1038.18" y="2001.75" fill="#c28118"/><rect width="5.85" height="84.38" x="1074.06" y="2001.75" fill="#c28118"/><rect width="5.85" height="84.38" x="1109.94" y="2001.75" fill="#c28118"/><rect width="5.85" height="84.38" x="1145.82" y="2001.75" fill="#c28118"/><rect width="5.85" height="84.38" x="1181.7" y="2001.75" fill="#c28118"/><rect width="5.85" height="84.38" x="1217.57" y="2001.75" fill="#c28118"/><rect width="5.85" height="84.38" x="1253.45" y="2001.75" fill="#c28118"/><rect width="5.85" height="84.38" x="1289.33" y="2001.75" fill="#c28118"/><rect width="5.85" height="84.38" x="1325.21" y="2001.75" fill="#c28118"/><rect width="5.85" height="84.38" x="1361.09" y="2001.75" fill="#c28118"/><rect width="5.85" height="84.38" x="1396.97" y="2001.75" fill="#c28118"/><rect width="5.85" height="84.38" x="1432.85" y="2001.75" fill="#c28118"/><rect width="5.85" height="84.38" x="1468.73" y="2001.75" fill="#c28118"/><rect width="5.85" height="84.38" x="1504.61" y="2001.75" fill="#c28118"/><rect width="5.85" height="84.38" x="1540.49" y="2001.75" fill="#c28118"/><rect width="202.89" height="84.05" x="977.93" y="2093.07" fill="#f3a021"/><rect width="214.29" height="84.05" x="1181.81" y="2093.07" fill="#f6b61c"/><rect width="107.02" height="84.05" x="1396.72" y="2093.07" fill="#f9c915"/><rect width="5.85" height="84.38" x="998.5" y="2093.07" fill="#c28118"/><rect width="5.85" height="84.38" x="1034.38" y="2093.07" fill="#c28118"/><rect width="5.85" height="84.38" x="1070.26" y="2093.07" fill="#c28118"/><rect width="5.85" height="84.38" x="1106.14" y="2093.07" fill="#c28118"/><rect width="5.85" height="84.38" x="1142.02" y="2093.07" fill="#c28118"/><rect width="5.85" height="84.38" x="1177.9" y="2093.07" fill="#c28118"/><rect width="5.85" height="84.38" x="1213.78" y="2093.07" fill="#c28118"/><rect width="5.85" height="84.38" x="1249.66" y="2093.07" fill="#c28118"/><rect width="5.85" height="84.38" x="1285.54" y="2093.07" fill="#c28118"/><rect width="5.85" height="84.38" x="1321.42" y="2093.07" fill="#c28118"/><rect width="5.85" height="84.38" x="1357.3" y="2093.07" fill="#c28118"/><rect width="5.85" height="84.38" x="1393.18" y="2093.07" fill="#c28118"/><rect width="5.85" height="84.38" x="1429.05" y="2093.07" fill="#c28118"/><rect width="5.85" height="84.38" x="1464.93" y="2093.07" fill="#c28118"/><rect width="5.85" height="84.38" x="1500.81" y="2093.07" fill="#c28118"/><rect width="202.89" height="84.05" x="977.93" y="2181.15" fill="#f3a021"/><rect width="214.29" height="84.05" x="1181.81" y="2181.15" fill="#f6b61c"/><rect width="107.02" height="84.05" x="1396.72" y="2181.15" fill="#f9c915"/><rect width="5.85" height="84.38" x="998.5" y="2181.15" fill="#c28118"/><rect width="5.85" height="84.38" x="1034.38" y="2181.15" fill="#c28118"/><rect width="5.85" height="84.38" x="1070.26" y="2181.15" fill="#c28118"/><rect width="5.85" height="84.38" x="1106.14" y="2181.15" fill="#c28118"/><rect width="5.85" height="84.38" x="1142.02" y="2181.15" fill="#c28118"/><rect width="5.85" height="84.38" x="1177.9" y="2181.15" fill="#c28118"/><rect width="5.85" height="84.38" x="1213.78" y="2181.15" fill="#c28118"/><rect width="5.85" height="84.38" x="1249.66" y="2181.15" fill="#c28118"/><rect width="5.85" height="84.38" x="1285.54" y="2181.15" fill="#c28118"/><rect width="5.85" height="84.38" x="1321.42" y="2181.15" fill="#c28118"/><rect width="5.85" height="84.38" x="1357.3" y="2181.15" fill="#c28118"/><rect width="5.85" height="84.38" x="1393.18" y="2181.15" fill="#c28118"/><rect width="5.85" height="84.38" x="1429.05" y="2181.15" fill="#c28118"/><rect width="5.85" height="84.38" x="1464.93" y="2181.15" fill="#c28118"/><rect width="5.85" height="84.38" x="1500.81" y="2181.15" fill="#c28118"/><rect width="202.89" height="84.05" x="1076.38" y="2270.86" fill="#f3a021"/><rect width="214.29" height="84.05" x="1280.27" y="2270.86" fill="#f6b61c"/><rect width="107.02" height="84.05" x="1495.18" y="2270.86" fill="#f9c915"/><rect width="5.85" height="84.38" x="1096.96" y="2270.86" fill="#c28118"/><rect width="5.85" height="84.38" x="1132.84" y="2270.86" fill="#c28118"/><rect width="5.85" height="84.38" x="1168.72" y="2270.86" fill="#c28118"/><rect width="5.85" height="84.38" x="1204.6" y="2270.86" fill="#c28118"/><rect width="5.85" height="84.38" x="1240.48" y="2270.86" fill="#c28118"/><rect width="5.85" height="84.38" x="1276.36" y="2270.86" fill="#c28118"/><rect width="5.85" height="84.38" x="1312.24" y="2270.86" fill="#c28118"/><rect width="5.85" height="84.38" x="1348.11" y="2270.86" fill="#c28118"/><rect width="5.85" height="84.38" x="1383.99" y="2270.86" fill="#c28118"/><rect width="5.85" height="84.38" x="1419.87" y="2270.86" fill="#c28118"/><rect width="5.85" height="84.38" x="1455.75" y="2270.86" fill="#c28118"/><rect width="5.85" height="84.38" x="1491.63" y="2270.86" fill="#c28118"/><rect width="5.85" height="84.38" x="1527.51" y="2270.86" fill="#c28118"/><rect width="5.85" height="84.38" x="1563.39" y="2270.86" fill="#c28118"/><rect width="5.85" height="84.38" x="1599.27" y="2270.86" fill="#c28118"/><rect width="202.89" height="84.05" x="1076.38" y="2358.95" fill="#f3a021"/><rect width="214.29" height="84.05" x="1280.27" y="2358.95" fill="#f6b61c"/><rect width="107.02" height="84.05" x="1495.18" y="2358.95" fill="#f9c915"/><rect width="5.85" height="84.38" x="1096.96" y="2358.95" fill="#c28118"/><rect width="5.85" height="84.38" x="1132.84" y="2358.95" fill="#c28118"/><rect width="5.85" height="84.38" x="1168.72" y="2358.95" fill="#c28118"/><rect width="5.85" height="84.38" x="1204.6" y="2358.95" fill="#c28118"/><rect width="5.85" height="84.38" x="1240.48" y="2358.95" fill="#c28118"/><rect width="5.85" height="84.38" x="1276.36" y="2358.95" fill="#c28118"/><rect width="5.85" height="84.38" x="1312.24" y="2358.95" fill="#c28118"/><rect width="5.85" height="84.38" x="1348.11" y="2358.95" fill="#c28118"/><rect width="5.85" height="84.38" x="1383.99" y="2358.95" fill="#c28118"/><rect width="5.85" height="84.38" x="1419.87" y="2358.95" fill="#c28118"/><rect width="5.85" height="84.38" x="1455.75" y="2358.95" fill="#c28118"/><rect width="5.85" height="84.38" x="1491.63" y="2358.95" fill="#c28118"/><rect width="5.85" height="84.38" x="1527.51" y="2358.95" fill="#c28118"/><rect width="5.85" height="84.38" x="1563.39" y="2358.95" fill="#c28118"/><rect width="5.85" height="84.38" x="1599.27" y="2358.95" fill="#c28118"/><rect width="202.89" height="84.05" x="1042.88" y="2449.59" fill="#f3a021"/><rect width="214.29" height="84.05" x="1246.77" y="2449.59" fill="#f6b61c"/><rect width="107.02" height="84.05" x="1461.67" y="2449.59" fill="#f9c915"/><rect width="5.85" height="84.38" x="1063.45" y="2449.59" fill="#c28118"/><rect width="5.85" height="84.38" x="1099.33" y="2449.59" fill="#c28118"/><rect width="5.85" height="84.38" x="1135.21" y="2449.59" fill="#c28118"/><rect width="5.85" height="84.38" x="1171.09" y="2449.59" fill="#c28118"/><rect width="5.85" height="84.38" x="1206.97" y="2449.59" fill="#c28118"/><rect width="5.85" height="84.38" x="1242.85" y="2449.59" fill="#c28118"/><rect width="5.85" height="84.38" x="1278.73" y="2449.59" fill="#c28118"/><rect width="5.85" height="84.38" x="1314.61" y="2449.59" fill="#c28118"/><rect width="5.85" height="84.38" x="1350.49" y="2449.59" fill="#c28118"/><rect width="5.85" height="84.38" x="1386.37" y="2449.59" fill="#c28118"/><rect width="5.85" height="84.38" x="1422.25" y="2449.59" fill="#c28118"/><rect width="5.85" height="84.38" x="1458.13" y="2449.59" fill="#c28118"/><rect width="5.85" height="84.38" x="1494.01" y="2449.59" fill="#c28118"/><rect width="5.85" height="84.38" x="1529.89" y="2449.59" fill="#c28118"/><rect width="5.85" height="84.38" x="1565.77" y="2449.59" fill="#c28118"/><ellipse cx="1199.48" cy="634.65" fill="#f3a021" rx="240.89" ry="248.34"/><ellipse cx="1199.52" cy="634.71" fill="#f6b61c" rx="213.2" ry="219.79"/><path fill="#f9c915" d="M1283.34,661.44q-8.86-13-24.5-21.63T1217,623.4l-2.22-.67L1206.06,544q29.42-2.29,59.68,8.62l-4.31-39.14a156,156,0,0,0-34-7.05,167.24,167.24,0,0,0-25.56-.22l-4.81-43.69-30.19,3.53,4.89,44.41a104.86,104.86,0,0,0-28.07,11.19q-19.08,11.21-28.39,28.75t-7,38.59q3,27,20.71,43.19t54.47,26.91l4.78,1.32,8.82,80.07a177.78,177.78,0,0,1-36.22-.22,167.05,167.05,0,0,1-39.06-8.89l4.43,40.24q14.74,5.39,36.87,7.09a228.33,228.33,0,0,0,38.16-.25l3.1,28.15,30.19-3.53-3.25-29.5q29.06-7.25,45-23.07,21.89-21.81,18.11-56.15Q1292.21,674.43,1283.34,661.44ZM1181,611.71a46.9,46.9,0,0,1-16.56-10.4q-6.53-6.52-7.78-18-1.76-15.87,9.83-26a42.28,42.28,0,0,1,9.74-6.29l6.77,61.44Zm54.56,115a40.13,40.13,0,0,1-8.73,6.07L1220,670.38q11.16,4.35,17.5,11,6.55,6.9,7.82,18.34Q1247.1,716,1235.58,726.67Z"/><path fill="#fff" d="M1399.75,710.17c-40.42,114-162.84,172.65-273.43,131l146.39-412.87C1383.29,470,1440.18,596.16,1399.75,710.17Z" opacity=".21"/><ellipse cx="2430.28" cy="570.85" fill="#6bb37c" opacity=".27" rx="139.57" ry="143.89"/><ellipse cx="476.1" cy="530.69" fill="#6bb37c" opacity=".27" rx="205.07" ry="143.39" transform="rotate(-20.65 476.012 530.606)"/></svg>